<?xml version="1.0" encoding="utf-8"?>
<!-- Generator: Adobe Illustrator 25.4.1, SVG Export Plug-In . SVG Version: 6.00 Build 0)  -->
<svg version="1.1" id="Layer_1" xmlns="http://www.w3.org/2000/svg" xmlns:xlink="http://www.w3.org/1999/xlink" x="0px" y="0px"
	 viewBox="0 0 1280 1230" style="enable-background:new 0 0 1280 1230;" xml:space="preserve">
<style type="text/css">
	.st0{fill:#767676;}
</style>
<g transform="translate(0.000000,1230.000000) scale(0.100000,-0.100000)">
	<path class="st0" d="M4970,12294c-25-2-106-8-180-14c-1181-95-2334-616-3184-1440c-317-307-568-614-792-967
		C365,9165,105,8395,18,7515c-17-173-17-720,0-900c69-738,273-1425,604-2040c500-928,1256-1675,2189-2164c919-481,1996-677,3049-555
		c868,100,1728,430,2427,931c56,40,104,73,108,73c3,0,641-588,1418-1307c776-718,1437-1326,1467-1350c72-58,235-138,335-165
		c116-31,355-31,470,0c600,165,884,837,581,1375c-78,138,76-8-1913,1831l-1080,998l84,142c167,280,340,657,449,978
		c403,1187,368,2487-98,3656c-388,976-1074,1820-1949,2402c-726,482-1517,764-2399,855C5616,12290,5078,12303,4970,12294z
		 M5584,10415c656-70,1247-314,1771-731c141-112,406-377,519-519c594-744,844-1668,705-2608c-183-1239-1087-2308-2284-2700
		c-389-128-707-174-1138-164c-268,6-406,22-632,72c-950,213-1757,815-2233,1666c-373,666-506,1454-372,2209
		c160,909,697,1723,1475,2236c455,300,954,479,1498,538C5062,10433,5413,10433,5584,10415z"/>
</g>
</svg>
